<svg width="14" height="14" viewBox="0 0 14 14" fill="none" xmlns="http://www.w3.org/2000/svg">
<path d="M6.99998 9.60308C7.69998 9.60308 8.35623 9.3187 8.85935 8.83745C9.3406 8.3562 9.6031 7.69995 9.6031 7.02183V2.97495C9.6031 1.5312 8.44373 0.371826 6.99998 0.371826C5.55623 0.371826 4.39685 1.5312 4.39685 2.97495V6.99995C4.39685 8.4437 5.55623 9.60308 6.99998 9.60308ZM5.38123 2.97495C5.38123 2.07808 6.1031 1.3562 6.99998 1.3562C7.89685 1.3562 8.61873 2.07808 8.61873 2.97495V6.99995C8.61873 7.41558 8.4656 7.8312 8.15935 8.13745C7.8531 8.4437 7.43748 8.6187 6.99998 8.6187C6.1031 8.6187 5.38123 7.89683 5.38123 6.99995V2.97495Z" fill="#364615"/>
<path d="M11.5063 6.89058C11.5063 6.62808 11.2875 6.38745 11.0032 6.38745C10.7188 6.38745 10.5 6.6062 10.5 6.89058C10.5 8.83745 8.92505 10.4125 6.97817 10.4125C5.05317 10.4125 3.47817 8.83745 3.47817 6.91245C3.47817 6.64995 3.25942 6.40933 2.97505 6.40933C2.69067 6.40933 2.47192 6.62808 2.47192 6.91245C2.47192 9.2312 4.22192 11.1343 6.47505 11.375V12.6218H5.1188C4.8563 12.6218 4.61567 12.8406 4.61567 13.125C4.61567 13.4093 4.83442 13.6281 5.1188 13.6281H8.81567C9.07817 13.6281 9.3188 13.4093 9.3188 13.125C9.3188 12.8406 9.10005 12.6218 8.81567 12.6218H7.45942V11.375C9.73442 11.1343 11.5063 9.20933 11.5063 6.89058Z" fill="#364615"/>
</svg>
