<svg width="14" height="14" viewBox="0 0 14 14" fill="none" xmlns="http://www.w3.org/2000/svg">
<path d="M2.77154 2.74342C1.64534 3.86768 1.01188 5.39326 1.0105 6.98457C1.00913 8.57588 1.63995 10.1026 2.7642 11.2288C3.88846 12.355 5.41404 12.9884 7.00535 12.9898C8.59666 12.9912 10.1233 12.3603 11.2495 11.2361M12.3642 9.68809C12.9283 8.56214 13.1238 7.28724 12.9231 6.04399C12.7223 4.80074 12.1354 3.65218 11.2456 2.76102C10.3558 1.86985 9.20808 1.28128 7.96513 1.07866C6.72218 0.876043 5.44699 1.06966 4.3202 1.63209M1.4002 5.00009H5.0002M7.66687 5.00009H12.6002M1.4002 9.00009H9.0002M11.6669 9.00009H12.6002" stroke="#8E9978" stroke-linecap="round" stroke-linejoin="round"/>
<path d="M6.66667 1C6.26897 1.63692 5.93555 2.3118 5.67133 3.01467M5.10667 5.11133C4.65333 7.796 5.17333 10.6073 6.66667 13M7.33333 1C8.33732 2.60871 8.92161 4.44363 9.03267 6.33667M8.89467 8.882C8.6485 10.3436 8.11804 11.7426 7.33333 13M1 1L13 13" stroke="#8E9978" stroke-linecap="round" stroke-linejoin="round"/>
</svg>
