<svg width="8" height="14" viewBox="0 0 8 14" fill="none" xmlns="http://www.w3.org/2000/svg">
<path d="M2.53748 4.64946V9.91015C2.54357 10.2948 2.70097 10.6617 2.97572 10.9316C3.25047 11.2015 3.62053 11.3527 4.00605 11.3527C4.39156 11.3527 4.76163 11.2015 5.03637 10.9316C5.31112 10.6617 5.46852 10.2948 5.47461 9.91015L5.47937 3.01475C5.48337 2.68596 5.42193 2.35964 5.29861 2.05472C5.1753 1.74979 4.99256 1.47233 4.76099 1.23842C4.52942 1.0045 4.25363 0.818779 3.9496 0.692024C3.64558 0.565269 3.31936 0.5 2.98987 0.5C2.66038 0.5 2.33416 0.565269 2.03014 0.692024C1.72611 0.818779 1.45032 1.0045 1.21875 1.23842C0.98718 1.47233 0.804441 1.74979 0.681125 2.05472C0.557809 2.35964 0.496369 2.68596 0.500366 3.01475V9.95659C0.493654 10.4195 0.579215 10.8791 0.752075 11.3087C0.924936 11.7383 1.18165 12.1293 1.50728 12.459C1.83292 12.7887 2.22099 13.0506 2.64892 13.2293C3.07685 13.408 3.53611 13.5 4 13.5C4.46389 13.5 4.92315 13.408 5.35108 13.2293C5.77901 13.0506 6.16708 12.7887 6.49272 12.459C6.81835 12.1293 7.07506 11.7383 7.24792 11.3087C7.42079 10.8791 7.50635 10.4195 7.49963 9.95659V3.46969" stroke="#364615" stroke-miterlimit="10" stroke-linecap="round"/>
</svg>
