<svg width="14" height="16" viewBox="0 0 14 16" fill="none" xmlns="http://www.w3.org/2000/svg">
<path d="M9.15862 7.20676L8.77928 8.3361C8.63824 8.76521 8.39847 9.15524 8.07924 9.47481C7.76001 9.79439 7.37025 10.0346 6.94128 10.1761L5.79928 10.5554C5.76068 10.5679 5.72702 10.5923 5.70315 10.6252C5.67928 10.658 5.66642 10.6975 5.66642 10.7381C5.66642 10.7787 5.67928 10.8182 5.70315 10.851C5.72702 10.8839 5.76068 10.9083 5.79928 10.9208L6.94128 11.3001C7.36633 11.4415 7.75252 11.6802 8.06916 11.997C8.3858 12.3139 8.62415 12.7003 8.76528 13.1254L9.14395 14.2688C9.15609 14.3077 9.18036 14.3418 9.21323 14.3659C9.24609 14.3901 9.28582 14.4032 9.32662 14.4032C9.36742 14.4032 9.40715 14.3901 9.44001 14.3659C9.47287 14.3418 9.49714 14.3077 9.50928 14.2688L9.90262 13.1394C10.0437 12.7144 10.2819 12.328 10.5985 12.0112C10.915 11.6943 11.301 11.4556 11.726 11.3141L12.8686 10.9348C12.9072 10.9223 12.9409 10.8979 12.9648 10.865C12.9886 10.8322 13.0015 10.7927 13.0015 10.7521C13.0015 10.7115 12.9886 10.672 12.9648 10.6392C12.9409 10.6063 12.9072 10.5819 12.8686 10.5694L11.7406 10.1761C11.3114 10.0351 10.9214 9.79502 10.6021 9.47538C10.2828 9.15574 10.0432 8.76546 9.90262 8.3361L9.52328 7.19276C9.51251 7.16461 9.49531 7.13936 9.47305 7.11904C9.45078 7.09872 9.42407 7.08389 9.39506 7.07572C9.36604 7.06756 9.33551 7.0663 9.30592 7.07204C9.27633 7.07777 9.24848 7.09035 9.22462 7.10876C9.19314 7.13421 9.17013 7.16795 9.15862 7.20676ZM3.53862 3.93143L3.26328 4.7521C3.16058 5.06419 2.98608 5.34783 2.75381 5.58021C2.52155 5.81259 2.23799 5.98724 1.92595 6.0901L1.09528 6.3661C1.06751 6.37545 1.04338 6.39329 1.02629 6.41709C1.00919 6.44089 1 6.46946 1 6.49876C1 6.52807 1.00919 6.55663 1.02629 6.58043C1.04338 6.60423 1.06751 6.62207 1.09528 6.63143L1.92595 6.9081C2.23505 7.01078 2.51593 7.18417 2.74624 7.41448C2.97655 7.64479 3.14994 7.92566 3.25262 8.23476L3.52795 9.06676C3.53731 9.09453 3.55515 9.11866 3.57895 9.13576C3.60275 9.15285 3.63131 9.16205 3.66062 9.16205C3.68992 9.16205 3.71849 9.15285 3.74229 9.13576C3.76609 9.11866 3.78392 9.09453 3.79328 9.06676L4.07995 8.24543C4.18309 7.93658 4.35664 7.65595 4.58689 7.4257C4.81713 7.19545 5.09777 7.0219 5.40662 6.91876L6.23662 6.6421C6.26439 6.63274 6.28852 6.6149 6.30561 6.5911C6.32271 6.5673 6.3319 6.53873 6.3319 6.50943C6.3319 6.48013 6.32271 6.45156 6.30561 6.42776C6.28852 6.40396 6.26439 6.38612 6.23662 6.37676L5.41662 6.0901C5.10444 5.98762 4.82078 5.8131 4.58856 5.58066C4.35635 5.34821 4.18212 5.06437 4.07995 4.7521L3.80395 3.92076C3.79353 3.89331 3.77474 3.86984 3.75024 3.85365C3.72575 3.83746 3.69678 3.82939 3.66744 3.83057C3.63811 3.83175 3.60988 3.84212 3.58676 3.86022C3.56365 3.87832 3.5468 3.90323 3.53862 3.93143ZM8.77128 1.6501L8.63328 2.06076C8.58228 2.21692 8.49523 2.35889 8.37918 2.47517C8.26313 2.59145 8.12134 2.67878 7.96528 2.7301L7.54995 2.8681C7.53955 2.87148 7.53009 2.87727 7.52236 2.88501C7.51463 2.89274 7.50883 2.9022 7.50545 2.9126C7.50207 2.923 7.5012 2.93406 7.50291 2.94486C7.50462 2.95566 7.50886 2.96591 7.51528 2.97476C7.52362 2.98705 7.53582 2.9962 7.54995 3.00076L7.96528 3.13876C8.11983 3.1901 8.26027 3.2768 8.37543 3.39195C8.49058 3.50711 8.57728 3.64755 8.62862 3.8021L8.76595 4.2181C8.77047 4.23222 8.77937 4.24455 8.79135 4.25329C8.80333 4.26204 8.81778 4.26675 8.83262 4.26675C8.84745 4.26675 8.8619 4.26204 8.87388 4.25329C8.88587 4.24455 8.89476 4.23222 8.89928 4.2181L9.04195 3.80743C9.09329 3.65288 9.17999 3.51244 9.29514 3.39729C9.4103 3.28213 9.55073 3.19544 9.70528 3.1441L10.1206 3.0061C10.1347 3.00157 10.1471 2.99268 10.1558 2.9807C10.1646 2.96871 10.1693 2.95426 10.1693 2.93943C10.1693 2.92459 10.1646 2.91014 10.1558 2.89816C10.1471 2.88618 10.1347 2.87729 10.1206 2.87276L9.71062 2.7301C9.55443 2.67887 9.41251 2.59158 9.29634 2.47529C9.18017 2.35901 9.09302 2.217 9.04195 2.06076L8.90395 1.64476C8.89874 1.63104 8.88935 1.6193 8.8771 1.61121C8.86485 1.60311 8.85037 1.59908 8.8357 1.59967C8.82103 1.60026 8.80692 1.60544 8.79536 1.61449C8.7838 1.62354 8.77538 1.636 8.77128 1.6501Z" stroke="#364615" stroke-linecap="round" stroke-linejoin="round"/>
</svg>
