<svg width="16" height="16" viewBox="0 0 16 16" fill="none" xmlns="http://www.w3.org/2000/svg">
<path d="M13.5534 11.7713C13.6267 11.5273 13.6667 11.2679 13.6667 10.9999V4.99992C13.6667 4.29267 13.3858 3.6144 12.8857 3.1143C12.3856 2.6142 11.7073 2.33325 11 2.33325H5.00004C4.2928 2.33325 3.61452 2.6142 3.11442 3.1143C2.61433 3.6144 2.33337 4.29267 2.33337 4.99992V11.0466C2.34561 11.7457 2.63195 12.4121 3.13073 12.9021C3.62951 13.3922 4.30081 13.6667 5.00004 13.6666H11L11.078 13.6653M13.5534 11.7713L13.4947 11.7019L11.8507 9.71792C11.726 9.56742 11.5697 9.44619 11.3929 9.36282C11.2161 9.27944 11.0231 9.23596 10.8276 9.23545C10.6322 9.23494 10.439 9.27742 10.2617 9.35987C10.0845 9.44232 9.92756 9.56274 9.80204 9.71259L8.92737 10.7566L8.78471 10.9306M13.5534 11.7713C13.3917 12.3068 13.0656 12.7772 12.6214 13.1173C12.1771 13.4573 11.6372 13.649 11.078 13.6653M8.78471 10.9306L11.016 13.5946L11.078 13.6653M8.78471 10.9306L6.63337 8.36192C6.50823 8.21256 6.35187 8.09245 6.17529 8.01003C5.99872 7.92762 5.80623 7.88491 5.61137 7.88491C5.41652 7.88491 5.22403 7.92762 5.04745 8.01003C4.87088 8.09245 4.71452 8.21256 4.58937 8.36192L2.45204 10.9133L2.33404 11.0473" stroke="#364615" stroke-linecap="round" stroke-linejoin="round"/>
<path d="M10.0607 6.93921C10.613 6.93921 11.0607 6.49149 11.0607 5.93921C11.0607 5.38692 10.613 4.93921 10.0607 4.93921C9.50838 4.93921 9.06067 5.38692 9.06067 5.93921C9.06067 6.49149 9.50838 6.93921 10.0607 6.93921Z" fill="#364615"/>
</svg>
